<svg width="614" height="179" viewBox="0 0 614 179" fill="none" xmlns="http://www.w3.org/2000/svg">
<path d="M107.608 178.263H107.102H106.487L105.981 178.155L104.717 177.938L104.355 177.794L103.488 177.504L103.199 177.36L102.91 177.215L102.621 177.071L102.44 176.926L102.043 176.746L101.717 176.493L101.392 176.312L101.103 176.023L100.958 175.914L100.669 175.625L100.38 175.3L99.9827 174.903L99.6575 174.469L99.4768 174.252L99.26 173.963L99.0793 173.674L98.7902 173.204L98.5373 172.698L98.3927 172.337L98.2121 171.867L97.9591 171.361L97.8868 171L97.7423 170.602V170.241L97.6339 169.952V169.482L97.5255 169.085V168.47L97.4532 168.001V167.169L97.5977 166.663V166.374L97.8145 165.724L98.0314 164.893L98.3205 164.278L98.465 163.845L98.6457 163.52L98.8986 163.122L98.9709 162.905L99.0432 162.833L99.26 162.544L99.6575 162.038L100.055 161.532L100.453 161.098L100.814 160.737L101.356 160.303L102.043 159.834L102.585 159.436L103.416 159.003L103.885 158.822L104.283 158.677L104.717 158.533L105.078 158.46L105.837 158.28L106.271 158.208H106.523L107.066 158.135L107.644 158.063H108.258L108.872 158.135L109.089 158.208L109.631 158.28L110.209 158.46L111.004 158.713L111.727 159.003L111.908 159.111L112.414 159.4L113.028 159.689L113.606 160.123L114.112 160.52L114.51 160.809L114.943 161.207L115.341 161.677L115.666 162.183L115.811 162.544V162.978L115.521 163.411L115.232 163.773L114.799 164.206L114.437 164.387L113.968 164.459L113.57 164.387L113.245 164.134L112.811 163.7L112.378 163.303L112.052 162.905L111.619 162.58L111.33 162.363L110.824 162.11L110.354 161.857L109.884 161.749L109.198 161.568L108.692 161.46H108.077L107.427 161.388L106.704 161.496L106.198 161.568L105.692 161.713L105.186 161.893L104.608 162.183L103.922 162.58L103.56 162.797L103.271 163.05L102.874 163.411L102.548 163.736L102.259 164.134L101.826 164.712L101.428 165.579L101.067 166.483L100.995 166.916V167.314L100.886 167.892V168.506L100.995 169.193L101.067 169.916L101.211 170.386L101.284 170.855L101.464 171.325L101.609 171.542L101.753 171.831L101.862 172.12V172.229L102.151 172.481L102.476 172.987L102.765 173.313L103.018 173.566L103.416 173.855L103.849 174.252L104.175 174.433L104.753 174.722L105.295 175.011L105.692 175.119L106.198 175.228L106.993 175.372H107.499H108.439L109.198 175.264L109.812 175.119L110.39 174.939L110.788 174.794L111.221 174.541L111.763 174.144L112.269 173.746L113.064 172.951L113.353 172.662L113.751 172.481L114.257 172.409L115.088 172.698L115.774 173.421L115.955 173.855V174.18L115.774 174.65L115.485 175.156L115.16 175.481L114.69 175.987L113.389 176.89L112.92 177.143L112.703 177.324L111.185 178.01L110.824 178.083L110.426 178.191L110.065 178.263L109.667 178.372L108.872 178.444L108.294 178.516L107.752 178.444L107.608 178.263Z" fill="#654E39"/>
<path d="M143.599 177.939L143.31 177.758L143.093 177.577L142.804 177.252L142.479 176.782L142.262 176.493L142.045 176.204L141.829 175.879L141.576 175.517L141.431 175.228L141.214 174.939L140.925 174.506L140.492 174L140.202 173.602L139.949 173.241L139.588 172.807L139.191 172.301L138.865 171.831L138.432 171.326L138.143 170.928L137.998 170.711L137.817 170.567L137.528 170.386L137.239 170.241L136.95 170.169L136.589 170.097H136.336H134.637H133.987L133.445 170.35L133.3 170.784V171.506L133.192 172.121V172.446L133.156 173.169V174.469V174.686V175.662V176.24L133.084 176.638V177.071L132.903 177.36L132.758 177.541L132.578 177.613L132.289 177.686H131.963L131.457 177.758L130.843 177.686L130.554 177.613L130.265 177.505L130.012 177.071L129.867 176.674V175.373L129.831 175.084L129.904 174.036V172.843L129.831 172.41V170.025L129.867 169.699V169.483V168.218V167.712V166.664V166.086V165.688L129.94 165.399L129.867 165.074V164.351V164.171V163.881V163.376V163.267V162.87V161.569L129.795 161.28L129.867 160.991L129.795 160.485V159.437L129.94 158.967L130.12 158.714L130.265 158.569L130.554 158.389L131.349 158.28L132.542 158.353H133.481L134.095 158.28H134.818H135.288H135.902H137.312H138.179H139.444H140.058L141.54 158.461L141.865 158.533L142.371 158.714L142.985 159.003L143.672 159.4L144.069 159.798L144.286 160.051L144.683 160.485L144.936 160.954L145.081 161.388L145.262 161.858L145.406 162.255L145.515 162.472L145.587 162.725V162.942V163.267V163.628L145.659 164.279V165.11V165.508L145.587 165.724L145.515 166.013L145.406 166.303L145.225 166.845L144.936 167.459L144.756 167.712L144.611 168.001L144.322 168.326L144.033 168.579L143.744 168.868L143.274 169.157L142.949 169.302L142.479 169.627L141.901 169.88L141.756 170.061V170.205L141.792 170.314L141.973 170.603L142.262 171.109L142.66 171.579L142.949 171.904L143.093 172.157L143.31 172.41L144.141 173.602L144.43 174L144.756 174.433L145.045 174.759L145.262 175.12L145.551 175.517L145.731 176.023V176.204L145.587 176.565L145.262 177.107L144.864 177.36L144.394 177.686L143.78 177.939L143.491 177.866L143.599 177.939ZM139.913 167.17H140.166L140.455 167.098H140.672H140.961L141.214 166.989L141.395 166.917L141.648 166.845L141.792 166.7L141.973 166.519L142.154 166.303L142.371 165.724L142.479 165.146V164.893L142.551 164.496V164.171V163.773L142.407 163.267L142.262 162.833L141.937 162.328L141.467 162.038L141.07 161.93L140.564 161.749H140.058L139.66 161.677H139.407H139.155H138.865H138.54H136.336H135.902H135.396L134.999 161.605H134.168L133.517 161.677L133.373 161.749L133.3 161.93V162.291L133.264 163.014V164.532V165.399V166.23L133.3 166.736L133.698 166.989L134.059 167.061H134.421H134.927L135.216 167.134H135.83H136.408H136.589H137.203H137.926L139.082 167.242H140.022L139.913 167.17Z" fill="#654E39"/>
<path d="M160.548 178.009L160.187 177.937L159.681 177.684L159.283 177.395L158.994 177.07L158.886 176.745V176.239L159.139 175.733L159.283 175.335L159.428 175.046L159.608 174.721L159.861 174.143L160.042 173.709L160.548 172.661L160.837 172.047L161.09 171.432L161.524 170.601L161.813 169.987L161.993 169.59L162.174 169.192L162.391 168.722L162.788 167.747L163.114 167.168L163.331 166.554L163.728 165.723L164.162 164.711L164.415 164.169L164.812 163.121L165.101 162.507L165.246 162.109L165.499 161.639L165.679 161.242V161.025L165.824 160.736L165.969 160.339L166.149 160.049L166.294 159.724L166.474 159.435L166.583 159.218L166.764 158.893L167.089 158.604L167.775 158.459H168.498L168.859 158.532L169.149 158.821L169.329 159.182L169.474 159.507L169.763 160.122L170.052 160.736L170.558 161.748L170.702 162.182L170.883 162.543L171.064 163.049L171.281 163.555L171.425 163.952L171.606 164.35L171.895 165.036L172.184 165.651L172.365 166.157L172.545 166.482L172.654 166.771L172.834 167.168L173.087 167.602L173.232 168.036L173.376 168.505L173.557 168.795L173.702 169.156L173.991 169.662L174.208 170.204L174.569 171.035L175.075 171.975L175.364 172.625L175.545 173.022L175.653 173.275L175.762 173.637L176.087 174.287L176.34 174.793L176.484 175.01L176.737 175.516L176.918 176.094L177.062 176.564L176.954 177.178L176.665 177.54L176.123 177.829L175.183 178.082L174.569 177.937L174.316 177.72L174.027 177.431L173.955 177.07L173.702 176.564L173.413 175.95L173.268 175.66L173.015 175.118L172.726 174.504L172.618 174.251L172.437 173.926L172.184 173.492L172.003 173.131L171.714 172.95L171.172 172.878H170.486H167.306H166.402H165.679H165.282H164.812H164.378L164.017 173.095L163.836 173.348L163.294 174.432L163.005 174.938L162.933 175.227L162.788 175.516L162.644 175.913L162.427 176.383L162.283 176.781L161.993 177.214L161.668 177.72L161.379 177.973L160.946 178.082H160.476L160.548 178.009ZM170.233 169.698L170.305 169.626L170.413 169.373L170.341 168.867L170.196 168.469L169.582 167.421L169.293 166.915L168.932 166.048L168.715 165.542L168.534 165.036L168.245 164.314L167.92 164.024L167.703 164.458L167.486 165.145L167.016 166.193L166.655 166.915L166.402 167.602L166.185 168.108L165.896 168.65V168.867L165.824 169.12V169.409L166.005 169.59H166.474H166.98L167.739 169.662L169.582 169.734H170.196L170.233 169.698Z" fill="#654E39"/>
<path d="M191.914 177.721L191.408 177.541L191.264 177.324L191.119 176.962V176.348V175.408V174.577V172.192V171.614V171.108V170.711V170.024V168.543L191.191 167.495L191.119 166.772V166.013V165.182V164.242V163.339V162.797V162.399V162.002V160.484V160.05V159.725L191.191 159.364L191.336 159.039L191.661 158.75L192.023 158.641H193.865H194.227H194.841H195.528L196.106 158.569H196.72H197.226L197.624 158.497H198.238H198.852H199.322L200.876 158.424H201.454H203.153H203.695L204.562 158.497L204.959 158.569L205.285 158.75L205.501 158.93L205.646 159.219L205.754 159.761V160.412L205.682 160.918L205.538 161.279L205.249 161.46L204.706 161.532H201.743H201.057H199.322L198.708 161.604H197.588H195.564L194.733 161.677L194.371 161.821L194.299 162.472V163.267V163.592V165.363L194.444 165.905L194.588 166.194L194.769 166.302L195.347 166.374H196.07H196.467L197.877 166.447H198.346H198.744L199.069 166.374H201.382L201.96 166.447L202.177 166.519L202.43 166.7L202.719 167.133L202.864 167.711V168.253L202.647 168.976L202.321 169.265L201.707 169.446H200.478L198.31 169.518H197.551H197.082H196.684H196.323L195.853 169.59H195.311L194.877 169.699L194.588 169.843L194.371 170.205L194.299 170.494V171.433L194.371 171.939V172.771L194.408 173.421V174.324V175.156V176.818L194.263 177.179L193.974 177.468L193.649 177.649L193.034 177.721H192.492H191.95H191.914Z" fill="#654E39"/>
<path d="M225.667 177.866H225.197L224.908 177.794L224.51 177.577L224.366 177.397L224.185 177.216L224.077 176.71V175.734V175.337L224.149 174.831V174.144V173.638V172.59V171.542V169.627L224.077 168.977V168.471V167.748V167.025L224.041 166.556V164.929V164.351V164.134V163.845V163.412V163.05V162.833V162.544L223.968 162.075L223.824 161.749L223.715 161.677H223.137H222.487H222.27H221.909H221.403L219.668 161.605H219.09L218.692 161.533L218.439 161.352L218.223 161.099L218.042 160.701V160.051V159.328L218.295 158.858L218.62 158.642L218.945 158.533H219.343L219.777 158.425H220.319H221.692H221.836H223.426H223.788H224.402H225.016H225.739H226.39L226.895 158.353H227.437H228.088H228.811L231.449 158.425L232.099 158.497L232.641 158.569L233.255 159.039L233.436 159.69V160.304L233.4 160.701L233.328 160.918L233.219 161.063L233.039 161.28L232.533 161.46L231.702 161.569H230.762H230.039L228.088 161.496L227.654 161.605L227.51 161.858V162.436V163.05V163.556V164.098V164.568L227.474 165.146V165.797V166.086V166.411L227.51 166.7V166.881V167.242V168.109V168.326V168.615V168.904V169.194L227.437 169.591V170.422V170.82V171.109V171.289V171.687V172.41V173.06V173.349V173.602V173.855V174.975V175.337V175.59L227.51 175.77L227.582 176.059V176.349V176.674L227.474 176.999L227.329 177.288L227.148 177.36L226.642 177.577L226.353 177.686L225.811 177.613L225.667 177.866Z" fill="#654E39"/>
<path d="M274.089 178.264H273.583H272.969L272.463 178.155L271.198 177.939L270.837 177.794L269.97 177.505L269.681 177.36L269.391 177.216L269.102 177.071L268.922 176.927L268.524 176.746L268.199 176.493L267.874 176.312L267.585 176.023L267.44 175.915L267.151 175.626L266.862 175.301L266.464 174.903L266.139 174.469L265.958 174.253L265.742 173.964L265.561 173.674L265.272 173.205L265.019 172.699L264.874 172.337L264.694 171.868L264.441 171.362L264.368 171L264.224 170.603V170.241L264.115 169.952V169.483L264.007 169.085V168.471L263.935 168.001V167.17L264.079 166.664V166.375L264.296 165.724L264.513 164.893L264.802 164.279L264.947 163.845L265.127 163.52L265.38 163.123L265.453 162.906L265.525 162.834L265.742 162.544L266.139 162.038L266.537 161.533L266.934 161.099L267.295 160.738L267.838 160.304L268.524 159.834L269.066 159.437L269.897 159.003L270.367 158.822L270.765 158.678L271.198 158.533L271.56 158.461L272.318 158.28L272.752 158.208H273.005L273.547 158.136L274.125 158.063H274.74L275.354 158.136L275.571 158.208L276.113 158.28L276.691 158.461L277.486 158.714L278.209 159.003L278.389 159.111L278.895 159.401L279.51 159.69L280.088 160.123L280.594 160.521L280.991 160.81L281.425 161.207L281.822 161.677L282.148 162.183L282.292 162.544V162.978L282.003 163.412L281.714 163.773L281.28 164.207L280.919 164.387L280.449 164.46L280.052 164.387L279.726 164.134L279.293 163.701L278.859 163.303L278.534 162.906L278.1 162.581L277.811 162.364L277.305 162.111L276.836 161.858L276.366 161.749L275.679 161.569L275.173 161.46H274.559L273.908 161.388L273.186 161.496L272.68 161.569L272.174 161.713L271.668 161.894L271.09 162.183L270.403 162.581L270.042 162.797L269.753 163.05L269.355 163.412L269.03 163.737L268.741 164.134L268.307 164.713L267.91 165.58L267.548 166.483L267.476 166.917V167.314L267.368 167.893V168.507L267.476 169.194L267.548 169.916L267.693 170.386L267.765 170.856L267.946 171.326L268.09 171.542L268.235 171.831L268.343 172.121V172.229L268.633 172.482L268.958 172.988L269.247 173.313L269.5 173.566L269.897 173.855L270.331 174.253L270.656 174.433L271.234 174.722L271.776 175.011L272.174 175.12L272.68 175.228L273.475 175.373H273.981H274.92L275.679 175.264L276.294 175.12L276.872 174.939L277.269 174.795L277.703 174.542L278.245 174.144L278.751 173.747L279.546 172.952L279.835 172.663L280.232 172.482L280.738 172.41L281.569 172.699L282.256 173.422L282.437 173.855V174.18L282.256 174.65L281.967 175.156L281.642 175.481L281.172 175.987L279.871 176.891L279.401 177.144L279.184 177.324L277.667 178.011L277.305 178.083L276.908 178.192L276.546 178.264L276.149 178.372L275.354 178.444L274.776 178.517L274.234 178.444L274.089 178.264Z" fill="#654E39"/>
<path d="M305.166 178.083H304.299L303.757 177.975H303.07L302.564 177.866L302.275 177.794L301.914 177.722L301.408 177.541L300.757 177.288L300.215 176.999L299.926 176.854L299.637 176.674L299.276 176.493L299.023 176.312L298.734 176.132L298.336 175.77L297.867 175.373L297.577 175.084L296.602 173.927L296.204 173.205L295.879 172.59L295.518 171.976L295.373 171.362L295.229 171L295.084 170.35L294.976 169.808V169.483L294.867 169.013V168.615V168.146V167.351L294.939 166.845V166.339L295.229 165.652L295.301 165.218L295.518 164.604L295.807 163.881L296.06 163.484L296.349 162.87L296.855 162.038L297.324 161.424L297.614 161.171L297.794 160.918L298.083 160.629L298.372 160.34L298.589 160.232L298.878 159.943L299.601 159.545L300.252 159.22L301.01 158.858L301.589 158.678L301.95 158.497L302.673 158.244L303.359 158.136L303.793 158.063H304.443H305.383L306.033 158.136H306.322L306.828 158.208L307.37 158.353L307.732 158.425L307.985 158.533L308.382 158.678L308.78 158.822L309.177 159.003L309.611 159.256L310.189 159.545L310.948 160.051L311.526 160.521L312.104 161.063L312.791 161.894L313.225 162.4L313.405 162.689L313.55 163.014L313.73 163.303L313.983 163.809L314.272 164.423L314.453 164.966L314.598 165.399L314.67 165.652L314.778 166.014L314.923 166.7L314.995 167.134V167.965V168.435V169.157L314.887 169.591V170.025L314.778 170.567L314.706 170.892L314.598 171.362L314.345 172.012L314.128 172.627L313.875 173.132L313.694 173.458L313.55 173.747L313.333 174.036L313.152 174.289L313.008 174.542L312.899 174.722L312.719 174.903L312.43 175.192L312.068 175.481L311.815 175.734L311.635 175.915L311.382 176.096L311.165 176.276L310.876 176.457L310.695 176.602L310.37 176.818L309.828 177.107L309.213 177.469L308.744 177.649L308.455 177.758L307.876 177.939L307.19 178.119L306.612 178.192H305.817L305.202 178.119L305.166 178.083ZM306.106 174.903H306.467L306.612 174.831L306.756 174.759L306.865 174.686L307.226 174.614L307.587 174.433L307.912 174.325L308.418 174.036L308.96 173.674L309.683 173.169L310.081 172.735L310.225 172.554L310.442 172.229L310.84 171.723L311.382 170.892L311.526 170.278L311.635 169.772L311.707 169.157L311.779 168.435V168.037V167.314L311.598 166.339L311.418 165.724L311.129 165.146L310.984 164.676L310.803 164.387L310.587 163.954L310.261 163.556L310.081 163.303L309.792 163.014L308.852 162.291L307.985 161.786L307.479 161.569L306.901 161.388L306.684 161.316L306.322 161.207L305.853 161.099H304.335L303.937 161.171L303.432 161.243L302.817 161.424L301.914 161.822L300.396 162.689L300.107 162.978L299.89 163.267L299.746 163.412L299.42 163.881L299.167 164.351L299.023 164.532L298.914 164.821L298.734 165.182L298.553 165.616L298.409 166.05L298.336 166.447L298.192 167.061L298.119 167.748V168.073L298.192 168.471V168.904L298.228 169.302V169.446L298.336 169.736L298.445 170.241L298.517 170.639L298.842 171.253L299.493 172.229L299.999 172.879L300.179 173.096L300.613 173.494L301.155 173.855L301.336 173.964L301.444 174.036L301.95 174.325L302.528 174.614L302.998 174.759L303.757 174.903L304.516 175.012H305.166L305.961 174.939L306.106 174.903Z" fill="#654E39"/>
<path d="M338.015 178.264H337.509H336.894L336.389 178.155L335.124 177.939L334.762 177.794L333.895 177.505L333.606 177.36L333.317 177.216L333.028 177.071L332.847 176.927L332.45 176.746L332.124 176.493L331.799 176.312L331.51 176.023L331.366 175.915L331.077 175.626L330.787 175.301L330.39 174.903L330.065 174.469L329.884 174.253L329.667 173.964L329.487 173.674L329.197 173.205L328.944 172.699L328.8 172.337L328.619 171.868L328.366 171.362L328.294 171L328.149 170.603V170.241L328.041 169.952V169.483L327.933 169.085V168.471L327.86 168.001V167.17L328.005 166.664V166.375L328.222 165.724L328.439 164.893L328.728 164.279L328.872 163.845L329.053 163.52L329.306 163.123L329.378 162.906L329.45 162.834L329.667 162.544L330.065 162.038L330.462 161.533L330.86 161.099L331.221 160.738L331.763 160.304L332.45 159.834L332.992 159.437L333.823 159.003L334.293 158.822L334.69 158.678L335.124 158.533L335.485 158.461L336.244 158.28L336.678 158.208H336.931L337.473 158.136L338.051 158.063H338.665L339.28 158.136L339.496 158.208L340.038 158.28L340.617 158.461L341.412 158.714L342.134 159.003L342.315 159.111L342.821 159.401L343.435 159.69L344.013 160.123L344.519 160.521L344.917 160.81L345.35 161.207L345.748 161.677L346.073 162.183L346.218 162.544V162.978L345.929 163.412L345.64 163.773L345.206 164.207L344.845 164.387L344.375 164.46L343.977 164.387L343.652 164.134L343.218 163.701L342.785 163.303L342.46 162.906L342.026 162.581L341.737 162.364L341.231 162.111L340.761 161.858L340.291 161.749L339.605 161.569L339.099 161.46H338.485L337.834 161.388L337.111 161.496L336.605 161.569L336.099 161.713L335.594 161.894L335.015 162.183L334.329 162.581L333.967 162.797L333.678 163.05L333.281 163.412L332.956 163.737L332.667 164.134L332.233 164.713L331.835 165.58L331.474 166.483L331.402 166.917V167.314L331.293 167.893V168.507L331.402 169.194L331.474 169.916L331.619 170.386L331.691 170.856L331.872 171.326L332.016 171.542L332.161 171.831L332.269 172.121V172.229L332.558 172.482L332.883 172.988L333.172 173.313L333.425 173.566L333.823 173.855L334.257 174.253L334.582 174.433L335.16 174.722L335.702 175.011L336.099 175.12L336.605 175.228L337.4 175.373H337.906H338.846L339.605 175.264L340.219 175.12L340.797 174.939L341.195 174.795L341.628 174.542L342.17 174.144L342.676 173.747L343.471 172.952L343.76 172.663L344.158 172.482L344.664 172.41L345.495 172.699L346.182 173.422L346.362 173.855V174.18L346.182 174.65L345.892 175.156L345.567 175.481L345.098 175.987L343.797 176.891L343.327 177.144L343.11 177.324L341.592 178.011L341.231 178.083L340.833 178.192L340.472 178.264L340.074 178.372L339.28 178.444L338.701 178.517L338.159 178.444L338.015 178.264Z" fill="#654E39"/>
<path d="M374.331 177.829L374.042 177.648L373.175 176.6L372.922 176.311L372.741 175.986L372.452 175.588L372.163 175.119L371.621 174.504L371.224 173.926L371.007 173.709L370.609 173.167L370.212 172.698L370.067 172.445L369.67 171.939L369.164 171.216L368.694 170.71L368.477 170.421L368.26 170.168L368.044 169.879L367.754 169.554L367.465 169.12L367.068 168.975L366.67 169.265L366.417 169.517L366.128 169.843L365.839 170.096L365.514 170.457L365.189 170.782L364.827 171.18L364.213 171.722L363.635 172.336L363.49 173.131V173.745L363.526 174.324V175.046V175.661V175.914V176.239V176.745L363.454 177.106L363.165 177.468L362.587 177.757L361.828 177.829H361.286L360.961 177.684L360.599 177.468L360.527 177.251V177.034L360.383 176.42V176.167V175.625V174.793L360.346 171.65V171.18V170.385V166.121V164.928L360.274 164.35V164.061V163.663V163.013V162.29V161.604V161.062V160.411V159.905V159.616L360.346 159.363L360.491 159.038L360.78 158.785L361.214 158.677H361.503H361.792H362.406L362.84 158.749L363.093 158.893L363.382 159.255L363.49 159.616V160.339L363.563 160.953V163.555V164.386V165V165.723L363.49 166.301V167.024L363.563 167.53V167.927H364.032L364.574 167.277L364.936 166.952L365.369 166.482L365.984 165.868L366.634 165.217L367.068 164.711L367.574 164.242L367.971 163.844L369.019 162.905L369.634 162.326L369.923 162.037L370.392 161.64L370.79 161.134L371.296 160.628L371.729 160.23L372.019 159.941L372.308 159.58L372.777 159.11L373.211 158.713L373.356 158.64L373.717 158.532L374.404 158.677L374.801 158.966L375.054 159.182L375.343 159.399L375.488 159.58L375.632 159.869V160.375L375.379 160.881L375.162 161.17L374.946 161.423L374.657 161.712L374.223 162.182L372.705 163.7L371.91 164.531L371.621 164.82L371.224 165.181L370.754 165.687L370.32 166.121L370.067 166.482L369.995 166.843L370.176 167.241L370.356 167.494L370.645 167.891L370.971 168.397L371.224 168.686L371.477 169.012L371.693 169.265L371.91 169.59L372.127 169.879L372.38 170.204L372.633 170.493L372.958 170.855L373.356 171.36L373.645 171.794L373.825 172.083L374.042 172.336L374.223 172.625L374.512 173.023L374.801 173.42L374.91 173.601L375.162 173.89L375.56 174.396L376.066 175.046L376.5 175.697L376.644 176.275L376.5 176.673L376.319 176.925L375.849 177.323L375.271 177.72L374.765 177.901H374.331V177.829Z" fill="#654E39"/>
<path d="M397.098 177.866H396.628L396.339 177.794L395.941 177.577L395.797 177.397L395.616 177.216L395.507 176.71V175.734V175.337L395.58 174.831V174.144V173.638V172.59V171.542V169.627L395.507 168.977V168.471V167.748V167.025L395.471 166.556V164.929V164.351V164.134V163.845V163.412V163.05V162.833V162.544L395.399 162.075L395.255 161.749L395.146 161.677H394.568H393.917H393.701H393.339H392.833L391.099 161.605H390.521L390.123 161.533L389.87 161.352L389.653 161.099L389.473 160.701V160.051V159.328L389.726 158.858L390.051 158.642L390.376 158.533H390.774L391.207 158.425H391.749H393.122H393.267H394.857H395.218H395.833H396.447H397.17H397.82L398.326 158.353H398.868H399.519H400.241L402.879 158.425L403.53 158.497L404.072 158.569L404.686 159.039L404.867 159.69V160.304L404.831 160.701L404.758 160.918L404.65 161.063L404.469 161.28L403.963 161.46L403.132 161.569H402.193H401.47L399.519 161.496L399.085 161.605L398.94 161.858V162.436V163.05V163.556V164.098V164.568L398.904 165.146V165.797V166.086V166.411L398.94 166.7V166.881V167.242V168.109V168.326V168.615V168.904V169.194L398.868 169.591V170.422V170.82V171.109V171.289V171.687V172.41V173.06V173.349V173.602V173.855V174.975V175.337V175.59L398.94 175.77L399.013 176.059V176.349V176.674L398.904 176.999L398.76 177.288L398.579 177.36L398.073 177.577L397.784 177.686L397.242 177.613L397.098 177.866Z" fill="#654E39"/>
<path d="M416.503 178.009L416.142 177.937L415.636 177.684L415.238 177.395L414.949 177.07L414.841 176.745V176.239L415.094 175.733L415.238 175.335L415.383 175.046L415.563 174.721L415.816 174.143L415.997 173.709L416.503 172.661L416.792 172.047L417.045 171.432L417.479 170.601L417.768 169.987L417.948 169.59L418.129 169.192L418.346 168.722L418.743 167.747L419.069 167.168L419.285 166.554L419.683 165.723L420.117 164.711L420.37 164.169L420.767 163.121L421.056 162.507L421.201 162.109L421.454 161.639L421.634 161.242V161.025L421.779 160.736L421.923 160.339L422.104 160.049L422.249 159.724L422.429 159.435L422.538 159.218L422.718 158.893L423.044 158.604L423.73 158.459H424.453L424.814 158.532L425.103 158.821L425.284 159.182L425.429 159.507L425.718 160.122L426.007 160.736L426.513 161.748L426.657 162.182L426.838 162.543L427.019 163.049L427.236 163.555L427.38 163.952L427.561 164.35L427.85 165.036L428.139 165.651L428.32 166.157L428.5 166.482L428.609 166.771L428.789 167.168L429.042 167.602L429.187 168.036L429.331 168.505L429.512 168.795L429.657 169.156L429.946 169.662L430.163 170.204L430.524 171.035L431.03 171.975L431.319 172.625L431.5 173.022L431.608 173.275L431.716 173.637L432.042 174.287L432.295 174.793L432.439 175.01L432.692 175.516L432.873 176.094L433.017 176.564L432.909 177.178L432.62 177.54L432.078 177.829L431.138 178.082L430.524 177.937L430.271 177.72L429.982 177.431L429.91 177.07L429.657 176.564L429.368 175.95L429.223 175.66L428.97 175.118L428.681 174.504L428.573 174.251L428.392 173.926L428.139 173.492L427.958 173.131L427.669 172.95L427.127 172.878H426.441H423.261H422.357H421.634H421.237H420.767H420.333L419.972 173.095L419.791 173.348L419.249 174.432L418.96 174.938L418.888 175.227L418.743 175.516L418.599 175.913L418.382 176.383L418.238 176.781L417.948 177.214L417.623 177.72L417.334 177.973L416.901 178.082H416.431L416.503 178.009ZM426.188 169.698L426.26 169.626L426.368 169.373L426.296 168.867L426.151 168.469L425.537 167.421L425.248 166.915L424.887 166.048L424.67 165.542L424.489 165.036L424.2 164.314L423.875 164.024L423.658 164.458L423.441 165.145L422.971 166.193L422.61 166.915L422.357 167.602L422.14 168.108L421.851 168.65V168.867L421.779 169.12V169.409L421.96 169.59H422.429H422.935L423.694 169.662L425.537 169.734H426.151L426.188 169.698Z" fill="#654E39"/>
<path d="M448.195 177.649L447.689 177.505L447.292 177.107L447.184 176.71V176.096V175.011V174.361V173.927V173.313V172.626V172.265L447.256 171.976L447.184 171.506V169.989V169.446L447.256 168.941V168.615V168.109L447.184 167.604V167.278V166.845L447.111 166.086V165.616L447.147 164.785V163.267V162.725V159.545L447.22 159.111L447.364 158.858L447.509 158.678L447.87 158.425L448.376 158.353H449.424L449.858 158.533L450.074 158.786L450.291 159.148V159.653L450.327 160.34V161.099V161.569V162.255V162.906L450.4 163.376V164.062L450.327 164.893V165.833V166.519V167.134V167.856V169.121V169.88V170.494V172.012V172.446V173.855V174.144L450.364 175.409V176.023L450.219 176.782L450.074 177.071L449.93 177.252L449.749 177.324L449.243 177.505H448.448H448.087L448.195 177.649Z" fill="#654E39"/>
<path d="M466.769 177.613L466.407 177.432L466.227 177.035L466.082 176.529V175.951V175.336V174.794V174.397V173.674V171.181V170.891L466.01 170.277V167.82V167.314V166.7L466.082 166.085V165.363V164.64V164.062L466.118 162.797V162.399L466.082 161.604V160.918V159.4L466.191 158.966L466.263 158.786L466.407 158.605L466.588 158.497L466.913 158.424H467.275H467.636H468.576L468.865 158.497L469.009 158.677L469.154 158.93V159.111L469.226 159.545V160.087V160.484V161.098L469.262 161.532V162.074L469.19 162.544V164.857L469.262 165.363V165.868L469.334 166.7V167.314V167.495V167.784L469.371 168.29V168.795V169.048V169.301V169.482V170.024L469.334 170.53V171.47L469.226 172.084V173.168L469.334 173.818V174.288L469.515 174.505H469.66L470.852 174.541H471.466H471.719H472.009L472.442 174.613H472.984H473.562L473.996 174.541H474.502H475.008H475.405H475.947L476.273 174.613H476.779L477.429 174.541H478.477H478.874L479.236 174.613L479.525 174.794L479.814 175.156V175.336L479.85 176.565V176.854L479.706 177.035L479.489 177.215L479.019 177.468L478.622 177.541H478.152H476.742L476.273 177.613H475.911H474.357H473.96H472.334H467.058L466.66 177.468L466.769 177.613Z" fill="#654E39"/>
<path d="M500.484 178.082L500.123 178.01L499.653 177.938L498.93 177.829L498.099 177.54L497.557 177.359L496.509 176.926L495.786 176.528L495.461 176.275L494.991 175.95L494.233 175.264L493.618 174.758L493.293 174.252L493.04 173.782V173.24L493.293 172.77L493.582 172.373L494.052 172.12L494.341 172.047L494.63 171.939H494.991L495.353 172.011L495.642 172.192L496.292 172.806L496.401 172.987L496.509 173.095L497.304 173.71L497.629 173.963L497.918 174.107L498.461 174.396L499.075 174.613L499.509 174.83L499.906 174.938L500.195 175.011H500.629H500.882H501.026H501.424H502.074L502.472 174.938H502.869L503.194 174.866H503.556L503.845 174.758L504.062 174.649L504.423 174.541L504.893 174.252L505.507 173.746L505.905 173.276L505.977 173.059L506.158 172.662V172.156V171.469L505.688 170.746L505.146 170.421L504.857 170.277L504.459 170.132L504.062 170.024L503.664 169.951L503.267 169.843L502.869 169.771L502.508 169.698H502.11L501.532 169.554L500.954 169.482L500.665 169.409L500.087 169.337L499.003 169.156L498.605 169.084L498.28 168.976L497.738 168.831L497.196 168.651L496.798 168.47L496.365 168.289L495.75 168L495.317 167.711L495.208 167.639L494.919 167.386L494.558 167.061L494.377 166.88L494.233 166.663L494.016 166.338L493.871 166.085L493.582 165.651L493.293 164.603V163.338L493.438 162.724L493.546 162.327L493.654 162.038L493.799 161.748L493.907 161.495L494.088 161.206L494.377 160.809L495.208 159.978L495.497 159.833L495.895 159.544L496.365 159.327L496.726 159.038L497.015 158.858L497.268 158.749H497.521L497.81 158.568L498.786 158.279L499.292 158.207L499.906 158.135L500.195 158.063H500.556L501.171 157.99H501.713H501.966H502.146L503.086 158.099L503.267 158.171H503.484L503.773 158.243L504.026 158.315H504.351L505.074 158.641L505.363 158.821L505.616 158.93L505.977 159.147L506.664 159.436L507.061 159.797L507.675 160.267L508.181 160.809L508.651 161.459L508.904 161.929L508.832 162.76V162.941L508.687 163.122L508.47 163.302L507.964 163.591L507.459 163.772H507.025L506.591 163.555L506.302 163.375L506.013 163.086L505.543 162.58L505.146 162.254L504.893 162.074L504.423 161.821L504.134 161.568L503.52 161.279L503.086 161.17L502.363 161.098H501.857H501.135L500.484 161.17H499.942L499.111 161.351L498.316 161.712L497.991 161.893L497.557 162.182L497.015 162.688L496.834 163.086L496.726 163.411V163.917L496.798 164.423L496.979 164.856L497.123 165.037L497.34 165.218L497.738 165.507L498.316 165.723L499.147 165.976L499.653 166.085L499.978 166.157H500.267L500.629 166.229L500.882 166.302L501.171 166.446H501.641H502.183L502.508 166.518L502.978 166.591L503.52 166.735L503.809 166.808H504.098L504.206 166.916L504.929 166.988L506.194 167.313L506.808 167.603L507.386 167.856L507.856 168.217L508.001 168.361L508.398 168.651L508.796 169.12L508.976 169.446L509.121 169.735L509.229 169.915L509.301 170.132L509.446 170.566V170.963L509.518 171.072L509.591 171.144V171.541V172.553L509.482 173.168L509.374 173.601L509.229 173.999L509.085 174.288V174.469L508.832 174.794L508.579 175.155L508.362 175.408L508.181 175.661L508.037 175.806L507.856 176.059L507.603 176.311L507.278 176.528L506.808 176.817L506.519 176.998L506.338 177.106L506.049 177.251L505.76 177.359L505.579 177.432L505.182 177.54L504.64 177.721L503.917 177.901L503.267 177.974L502.869 178.046H502.327H501.279H500.629L500.484 178.082Z" fill="#654E39"/>
<path d="M231.194 62.0819C231.664 83.8 240.771 102.23 262.055 113.287C275.642 120.37 289.88 121.382 304.335 115.962C310.55 113.613 315.754 109.854 319.512 104.253C320.018 103.531 320.632 102.519 321.68 103.133C322.764 103.784 322.259 104.868 321.825 105.735C319.259 110.722 315.32 114.444 310.695 117.443C302.817 122.538 294 124.707 284.749 124.887C259.236 125.357 239.181 114.986 225.268 93.593C216.487 80.0418 214.463 64.9006 217.065 49.1451C219.558 34.04 226.533 21.4283 238.711 11.9967C248.359 4.51641 259.309 0.541388 271.667 1.26412C278.353 1.66162 284.64 3.57686 289.338 8.70825C294.036 13.8396 295.59 20.019 293.711 26.632C291.795 33.2811 286.736 36.967 280.051 38.2318C275.932 38.9907 272.282 37.762 269.463 34.582C268.018 32.9197 267.331 30.9684 268.379 28.8002C269.138 27.2824 270.909 26.6681 272.246 27.427C273.619 28.1859 274.016 29.6313 273.077 31.1852C272.209 32.6306 272.86 33.5702 273.872 34.3291C275.895 35.8829 278.136 35.63 280.34 34.7627C285.724 32.5945 288.868 26.632 288.254 19.9467C287.604 12.6471 282.508 7.58802 274.667 6.17869C264.043 4.26345 255.261 7.94939 247.709 15.1044C239.795 22.6208 235.567 32.1609 233.182 42.6043C231.845 48.4946 231.375 54.4571 231.194 62.0819Z" fill="#654E39"/>
<path d="M500.63 61.2882C501.027 83.3676 482.959 102.52 460.554 102.195C437.065 101.87 419.575 84.7408 419.575 61.3605C419.575 36.896 438.655 20.1648 462.072 20.49C483.139 20.7791 500.63 39.0281 500.63 61.2882ZM432.44 61.758C432.548 67.1784 433.343 72.7073 435.548 77.9833C441.293 91.8958 457.952 101.002 473.021 94.7145C486.175 89.2217 493.691 79.2119 495.209 65.2271C496.727 50.9893 491.415 39.3172 479.453 31.2948C465.83 22.1523 451.737 25.0794 441.51 36.0287C434.825 43.1476 432.584 52.0011 432.476 61.758H432.44Z" fill="#654E39"/>
<path d="M363.744 61.1075C363.744 49.3993 363.419 37.7272 363.058 26.0551C363.058 25.2601 363.058 24.4651 363.058 23.6701C363.094 22.6582 363.636 22.0439 364.648 22.0439C374.657 21.7548 384.487 22.586 393.629 27.2114C406.458 33.716 410.902 46.1109 409.638 58.8309C408.409 70.7921 400.748 77.6942 390.268 82.0667C388.136 82.9701 388.1 82.934 389.546 84.8131C393.485 89.9445 397.713 94.7507 403.097 98.4366C409.421 102.773 416.287 104.833 423.948 102.809C425.429 102.412 426.911 101.978 427.995 100.785C428.32 100.424 428.609 99.9182 429.188 100.243C429.693 100.569 429.874 101.111 429.802 101.689C429.621 103.532 428.754 105.086 427.272 106.206C423.912 108.699 420.009 108.988 416.07 108.663C409.349 108.121 403.964 104.688 398.941 100.496C393.701 96.1239 389.293 90.9202 385.282 85.4636C384.487 84.3795 383.692 83.982 382.355 84.3433C380.042 84.9577 377.657 85.2467 375.272 85.2467C373.718 85.2467 373.32 85.8611 373.393 87.3427C373.573 91.0647 373.682 94.7868 373.754 98.545C373.79 100.713 373.501 101.002 371.333 101.002C369.418 101.002 367.539 101.002 365.623 101.002C363.491 101.002 363.021 100.605 362.985 98.4366C362.985 95.0759 363.058 91.7152 363.202 88.3545C363.564 79.2842 363.744 70.2501 363.744 61.1798V61.1075ZM373.212 79.9347C373.212 81.2717 373.718 81.4524 374.838 81.344C379.97 80.9826 384.812 79.6094 389.329 77.116C401.471 70.4308 406.421 56.8073 400.893 44.4847C395.87 33.3185 386.51 28.3317 374.802 26.9585C373.465 26.8139 373.429 27.6451 373.429 28.5485C373.031 38.9919 372.489 68.6239 373.176 79.8985L373.212 79.9347Z" fill="#654E39"/>
<path d="M593.717 68.6602C591.476 63.7457 589.525 59.2647 587.429 54.8561C583.599 46.7615 579.479 38.8476 574.492 31.4396C573.155 29.4882 573.119 29.4521 571.71 31.4396C567.952 36.824 565.133 42.7503 562.423 48.7129C556.93 60.7463 551.69 72.8521 548.546 85.789C547.462 90.1976 546.45 94.6063 546.234 99.1595C546.197 100.352 545.764 101.039 544.499 100.93C544.391 100.93 544.246 100.93 544.138 100.93C540.488 101.002 540.163 100.533 540.849 96.8829C545.33 72.4546 555.123 50.0499 567.301 28.5848C567.699 27.8982 568.096 27.2116 568.602 26.5973C569.325 25.6939 569.505 24.935 568.494 24.14C568.06 23.8148 567.699 23.3089 567.952 22.6946C568.205 22.0802 568.819 22.1164 569.361 22.1164C572.432 22.1164 575.468 22.1164 578.54 22.1164C580.636 22.1164 582.117 23.2005 583.273 24.8266C585.911 28.4403 588.007 32.3792 589.959 36.3903C599.39 55.7956 607.377 75.743 613.303 96.5215C613.339 96.7022 613.411 96.8829 613.448 97.0636C614.423 100.569 614.062 101.039 610.52 101.039C609.219 101.039 607.955 100.966 606.654 101.039C604.847 101.183 604.016 100.352 603.582 98.6536C601.992 92.149 599.824 85.8613 596.246 80.1155C592.741 74.4782 588.224 70.0334 581.467 68.6602C577.275 67.793 573.047 67.9375 569.036 69.7443C566.181 71.0453 564.266 73.1773 563.977 76.4296C563.76 78.7785 564.663 80.0794 566.831 80.9828C567.41 81.1996 567.988 81.3803 568.53 81.7055C569.686 82.3921 570.409 83.3678 569.795 84.741C569.216 86.0781 568.06 86.4033 566.759 86.1142C565.097 85.7167 563.76 84.8133 562.639 83.5124C559.315 79.718 559.459 74.3337 563.037 70.3225C566.398 66.6005 570.626 64.6129 575.649 64.4323C581.575 64.2154 587.212 65.2273 592.416 68.1905C592.633 68.2989 592.85 68.335 593.645 68.6241L593.717 68.6602Z" fill="#654E39"/>
<path d="M333.75 69.238C332.63 66.6723 331.546 64.1066 330.426 61.5771C325.8 51.3866 320.922 41.3045 314.706 31.9451C314.454 31.5476 314.128 31.1501 313.875 30.7165C313.297 29.6685 312.827 29.7769 312.177 30.7165C310.009 33.6435 308.202 36.7513 306.612 40.0036C299.565 54.2775 292.952 68.7321 288.905 84.1986C287.64 89.0409 286.375 93.9193 286.267 98.9784C286.267 100.46 285.617 101.147 284.135 101.002C283.701 100.966 283.268 101.002 282.834 101.002C280.81 101.002 280.341 100.496 280.594 98.4725C281.099 94.3529 282.075 90.2695 283.123 86.2583C288.58 65.01 297.469 45.2072 308.708 26.4162C309.25 25.5489 309.141 25.043 308.527 24.3564C308.166 23.9228 307.515 23.4892 307.841 22.7664C308.202 22.0076 308.997 22.1882 309.647 22.1882C312.358 22.1882 315.032 22.2605 317.742 22.1882C320.199 22.116 321.97 23.0917 323.343 25.043C326.74 29.8131 329.306 35.0167 331.763 40.2565C340.291 58.3248 347.591 76.8628 353.12 96.0513C354.529 100.894 354.384 101.11 349.434 101.11C343.327 101.11 344.519 101.616 342.929 96.1236C340.761 88.6795 337.834 81.5606 332.702 75.5981C325.584 67.3589 314.706 66.9253 307.118 69.2742C304.444 70.1053 302.312 71.6592 302.673 75.1283C302.854 76.8628 301.228 78.2722 299.674 78.1638C298.228 78.0915 297.361 76.8628 297.361 74.9476C297.361 72.7071 298.445 70.9364 299.963 69.4548C303.902 65.6244 308.816 64.1428 314.164 63.9621C320.777 63.7453 326.848 65.6244 332.486 68.9489C332.811 69.1296 333.1 69.5633 333.823 69.2742L333.75 69.238Z" fill="#654E39"/>
<path d="M527.37 64.4314C527.189 74.7664 527.876 86.1856 527.984 97.6409C527.984 100.857 527.876 100.965 524.696 100.965C523.033 100.965 521.407 100.965 519.745 100.965C517.685 100.965 517.107 100.496 517.107 98.3997C517.107 95.039 517.324 91.6783 517.396 88.3176C517.577 80.2953 517.757 72.3091 517.83 64.2868C517.974 52.1811 517.649 40.0753 517.288 27.9696C517.252 26.5241 516.782 26.1989 515.445 26.3796C510.566 27.03 505.76 27.825 501.315 30.1016C500.484 30.5353 499.617 30.8244 498.677 30.8966C496.943 31.005 495.497 30.1378 495.28 28.7646C494.991 27.0662 495.823 25.9459 497.376 25.3677C499.255 24.645 501.207 24.1391 503.194 23.7777C517.396 21.212 531.525 21.2482 545.583 24.7896C546.341 24.9702 547.136 25.2232 547.823 25.6207C548.979 26.235 549.666 27.2468 549.485 28.62C549.268 30.0294 548.221 30.6437 546.92 30.8605C545.655 31.0773 544.462 30.6798 543.378 30.1378C539.114 27.9334 534.489 27.1746 529.791 26.488C528.526 26.3073 527.948 26.488 527.912 28.0057C527.55 39.8224 527.261 51.6029 527.334 64.5398L527.37 64.4314Z" fill="#654E39"/>
<path d="M40.8274 101.362C40.8274 101.362 36.7079 101.434 36.0213 101.001C34.1783 100.097 32.8051 98.3266 31.5403 96.1946C20.3741 77.5481 11.7014 57.7453 4.22109 37.4004C2.88404 33.7867 1.65539 30.1008 0.462889 26.4149C-0.548935 23.3433 -0.0068841 22.6205 3.137 22.6205C8.07566 22.6205 11.2918 24.9453 12.7855 29.5949C17.8084 45.1336 24.8189 59.8412 31.7572 74.5849C34.6119 80.6558 37.3583 86.7268 40.5022 92.6532C41.1888 93.9541 41.6586 94.1348 42.6343 92.87C52.8609 79.7163 61.8589 65.8037 67.5685 50.0482C69.9535 43.5075 71.4351 36.7861 69.7728 29.7033C67.8937 21.681 61.5337 17.2362 54.2702 19.0069C51.9575 19.5851 50.0422 20.8137 48.7775 22.8735C47.6934 24.6803 47.9825 26.4149 48.8859 28.1856C49.3195 28.9806 50.0061 29.3419 50.9095 29.2335C51.7407 29.1613 52.1382 28.6915 52.4273 27.8603C53.0416 26.0535 53.9089 25.909 55.2098 27.2099C56.4023 28.4024 56.583 29.8117 56.1132 31.3295C55.6073 32.9917 54.487 33.9313 52.7525 34.2204C47.3681 35.1961 42.6704 29.8117 43.899 24.066C45.0915 18.4287 49.3918 14.5982 55.2098 13.9116C65.581 12.7191 73.531 18.6817 75.6992 29.1251C77.759 38.9543 75.5908 48.2052 71.941 57.2394C66.376 71.0797 58.0646 83.3299 49.4641 95.3996C48.2716 97.0618 46.7177 98.5434 46.1034 100.603C45.8865 101.326 45.1999 101.29 44.6218 101.29C43.357 101.29 42.0922 101.29 40.8274 101.29V101.362Z" fill="#654E39"/>
<path d="M178.364 68.4428C177.388 66.383 176.485 64.2871 175.473 62.2634C170.486 52.0368 165.318 41.8824 158.85 32.4869C157.368 30.3187 157.26 30.2826 155.67 32.4869C151.659 38.1604 148.768 44.4481 145.805 50.6997C140.059 62.8778 134.385 75.0919 130.7 88.1011C129.652 91.7509 128.495 95.3645 128.242 99.195C128.098 101.544 127.303 101.508 123.617 101.255C121.81 101.146 121.738 99.7009 122.099 98.2193C125.062 85.5715 129.362 73.3935 134.638 61.5407C139.119 51.567 143.673 41.6295 149.346 32.2701C150.322 30.6801 151.334 29.0901 152.562 27.753C153.61 26.5967 153.682 25.8739 152.418 24.9344C151.912 24.573 151.261 24.031 151.55 23.2721C151.839 22.4771 152.671 22.6578 153.285 22.6578C156.718 22.6578 160.115 22.6578 163.548 22.6578C166.33 22.6578 167.559 24.6091 168.824 26.5605C172.943 33.029 176.557 39.7865 179.954 46.6525C187.868 62.6609 194.697 79.1392 200.299 96.1234C201.961 101.219 201.563 101.508 196.504 101.399C189.602 101.255 191.011 101.978 188.879 95.6175C187.398 91.2449 186.097 86.8002 184.146 82.6445C181.218 76.2844 175.834 72.6708 169.077 71.2253C164.017 70.1412 158.886 70.0689 153.791 71.0085C149.491 71.8035 148.443 72.9237 147.864 77.2962C147.648 79.1031 146.166 80.5847 144.648 80.404C142.697 80.151 142.155 78.7056 142.155 77.0072C142.155 74.0801 143.781 71.948 145.949 70.2496C149.743 67.3226 154.152 66.0939 158.85 65.9132C165.354 65.6603 171.751 66.3107 178.328 68.4428H178.364Z" fill="#654E39"/>
<path d="M104.32 97.2426C104.428 101.145 104.139 101.326 100.345 101.326C98.9354 101.326 97.5261 101.218 96.1168 101.326C93.9486 101.507 93.1175 100.423 93.1536 98.4351C93.2259 94.424 93.2259 90.4128 93.4066 86.4016C94.3461 66.5988 93.8402 46.8321 93.2259 27.0654C93.2259 26.5595 93.2259 26.0174 93.2259 25.5115C93.009 23.3795 93.9847 22.5122 96.0807 22.6568C97.7068 22.7652 99.3691 22.6568 100.995 22.6568C103.85 22.6568 104.32 23.1265 104.284 26.0897C104.175 31.9077 103.922 37.6895 103.85 43.5075C103.236 62.6238 103.236 63.4549 104.392 97.2787L104.32 97.2426Z" fill="#654E39"/>
<path d="M94.5985 2.96296C94.0926 4.30001 93.6228 5.49252 93.1169 6.7573C92.069 5.85388 91.1655 4.91433 90.0815 4.08319C89.973 5.27569 89.8646 6.3598 89.7562 7.55231C88.4553 6.61276 87.1183 5.96229 85.6367 5.3841C86.793 6.90184 87.841 8.34731 88.9251 9.75664C95.4297 5.99844 101.898 5.99844 108.367 9.75664C109.451 8.31118 110.499 6.90184 111.619 5.3841C110.101 5.96229 108.8 6.64888 107.535 7.51616C107.427 6.32365 107.319 5.23957 107.21 4.01092C106.162 4.95048 105.187 5.81775 104.175 6.7573C103.669 5.49252 103.199 4.26388 102.693 2.96296C101.934 4.04706 101.212 5.02275 100.453 6.07071C99.8383 4.80593 99.2601 3.61341 98.6097 2.34863C97.9954 3.64955 97.4172 4.80593 96.7667 6.07071C96.0078 5.02275 95.2851 4.04706 94.5262 2.96296H94.5985Z" fill="#654E39"/>
<path d="M107.789 11.4543C107.789 11.4543 107.5 11.2014 107.355 11.093C106.524 10.4787 105.585 10.0089 104.609 9.64751C101.393 8.455 98.0682 8.34659 94.7075 9.06933C93.0091 9.43069 91.4191 10.1173 90.0097 11.1291C89.8652 11.2375 89.7207 11.3821 89.5761 11.4905C89.5761 11.5266 89.5761 11.5628 89.6122 11.5989C95.647 9.64751 101.646 9.64751 107.681 11.5989C107.681 11.5628 107.717 11.5266 107.753 11.4905L107.789 11.4543Z" fill="#654E39"/>
<path d="M107.861 1.69849C107.355 1.69849 106.958 2.096 106.958 2.63804C106.958 3.18009 107.355 3.5776 107.897 3.61373C108.403 3.61373 108.837 3.18009 108.837 2.67418C108.837 2.13213 108.403 1.73463 107.861 1.73463V1.69849Z" fill="#654E39"/>
<path d="M103.018 0.54126C102.513 0.54126 102.079 0.938762 102.079 1.44467C102.079 1.95059 102.476 2.42036 103.018 2.42036C103.56 2.42036 103.958 2.02287 103.958 1.48082C103.958 0.93877 103.56 0.54126 103.018 0.54126Z" fill="#654E39"/>
<path d="M94.309 0.541016C93.7669 0.541016 93.3694 0.974656 93.4055 1.5167C93.4055 2.02262 93.8392 2.42012 94.3451 2.42012C94.8871 2.42012 95.2846 1.98649 95.2846 1.48057C95.2846 0.938525 94.851 0.541023 94.309 0.57716V0.541016Z" fill="#654E39"/>
<path d="M99.6212 0.939544C99.6212 0.397496 99.1876 0 98.6817 0C98.1758 0 97.7783 0.433639 97.7421 0.903414C97.7421 1.44546 98.1396 1.84297 98.6817 1.8791C99.2237 1.8791 99.6212 1.48159 99.6212 0.939544Z" fill="#654E39"/>
<path d="M84.5168 3.3247C84.0109 3.3247 83.5772 3.79448 83.6134 4.30039C83.6134 4.80631 84.047 5.20381 84.5529 5.20381C85.0588 5.20381 85.5286 4.73403 85.4925 4.22812C85.4925 3.72221 85.0227 3.28857 84.5168 3.28857V3.3247Z" fill="#654E39"/>
<path d="M88.5273 2.67393C88.5273 3.17984 88.9609 3.57734 89.4668 3.57734C89.9728 3.57734 90.4064 3.14371 90.4064 2.6378C90.4064 2.09575 89.9728 1.69824 89.4668 1.69824C88.9609 1.69824 88.5273 2.16802 88.5273 2.67393Z" fill="#654E39"/>
<path d="M112.811 3.32446C112.305 3.32446 111.872 3.7581 111.872 4.30015C111.872 4.80606 112.269 5.20357 112.775 5.20357C113.317 5.20357 113.715 4.80607 113.715 4.26402C113.715 3.72197 113.317 3.32446 112.775 3.32446H112.811Z" fill="#654E39"/>
</svg>
