<svg width="22" height="22" viewBox="0 0 22 22" fill="none" xmlns="http://www.w3.org/2000/svg">
<path d="M11 1.982C13.937 1.982 14.285 1.993 15.445 2.046C16.1424 2.05412 16.8332 2.18233 17.487 2.425C17.965 2.60111 18.3973 2.88237 18.752 3.248C19.1176 3.60269 19.3989 4.035 19.575 4.513C19.8177 5.16685 19.9459 5.85762 19.954 6.555C20.007 7.715 20.018 8.063 20.018 11C20.018 13.937 20.007 14.285 19.954 15.445C19.9459 16.1424 19.8177 16.8332 19.575 17.487C19.3919 17.9615 19.1116 18.3924 18.752 18.752C18.3924 19.1116 17.9615 19.3919 17.487 19.575C16.8332 19.8177 16.1424 19.9459 15.445 19.954C14.285 20.007 13.937 20.018 11 20.018C8.063 20.018 7.715 20.007 6.555 19.954C5.85762 19.9459 5.16685 19.8177 4.513 19.575C4.035 19.3989 3.60269 19.1176 3.248 18.752C2.88237 18.3973 2.60111 17.965 2.425 17.487C2.18233 16.8332 2.05412 16.1424 2.046 15.445C1.993 14.285 1.982 13.937 1.982 11C1.982 8.063 1.993 7.715 2.046 6.555C2.05412 5.85762 2.18233 5.16685 2.425 4.513C2.60111 4.035 2.88237 3.60269 3.248 3.248C3.60269 2.88237 4.035 2.60111 4.513 2.425C5.16685 2.18233 5.85762 2.05412 6.555 2.046C7.715 1.993 8.063 1.982 11 1.982ZM11 0C8.013 0 7.638 0.013 6.465 0.066C5.55258 0.0848561 4.6499 0.257617 3.795 0.577C3.06355 0.860172 2.3994 1.29319 1.84521 1.84824C1.29102 2.40329 0.859036 3.06811 0.577 3.8C0.257617 4.6549 0.0848561 5.55758 0.066 6.47C0.013 7.638 0 8.013 0 11C0 13.987 0.013 14.362 0.066 15.535C0.0848561 16.4474 0.257617 17.3501 0.577 18.205C0.860172 18.9365 1.29319 19.6006 1.84824 20.1548C2.40329 20.709 3.06811 21.141 3.8 21.423C4.6549 21.7424 5.55758 21.9151 6.47 21.934C7.638 21.987 8.013 22 11 22C13.987 22 14.362 21.987 15.535 21.934C16.4474 21.9151 17.3501 21.7424 18.205 21.423C18.9365 21.1398 19.6006 20.7068 20.1548 20.1518C20.709 19.5967 21.141 18.9319 21.423 18.2C21.7424 17.3451 21.9151 16.4424 21.934 15.53C21.987 14.362 22 13.987 22 11C22 8.013 21.987 7.638 21.934 6.465C21.9151 5.55258 21.7424 4.6499 21.423 3.795C21.1398 3.06355 20.7068 2.3994 20.1518 1.84521C19.5967 1.29102 18.9319 0.859036 18.2 0.577C17.3451 0.257617 16.4424 0.0848561 15.53 0.066C14.362 0.013 13.987 0 11 0Z" fill="#654E39"/>
<path d="M11 5.35107C9.88269 5.35107 8.79051 5.68238 7.86154 6.3031C6.93256 6.92382 6.20852 7.80608 5.78096 8.8383C5.3534 9.87052 5.24153 11.0063 5.4595 12.1021C5.67747 13.1979 6.21548 14.2045 7.00551 14.9945C7.79554 15.7845 8.80209 16.3226 9.89789 16.5405C10.9937 16.7585 12.1295 16.6466 13.1617 16.2191C14.194 15.7915 15.0762 15.0675 15.6969 14.1385C16.3176 13.2095 16.649 12.1173 16.649 11.0001C16.649 9.50187 16.0538 8.06502 14.9944 7.00563C13.935 5.94624 12.4982 5.35107 11 5.35107ZM11 14.6671C10.2747 14.6671 9.56571 14.452 8.96268 14.0491C8.35964 13.6461 7.88964 13.0734 7.61209 12.4034C7.33454 11.7333 7.26192 10.996 7.40341 10.2847C7.54491 9.57335 7.89416 8.91995 8.40699 8.40711C8.91983 7.89427 9.57323 7.54503 10.2846 7.40353C10.9959 7.26204 11.7332 7.33466 12.4033 7.61221C13.0733 7.88976 13.646 8.35976 14.049 8.9628C14.4519 9.56583 14.667 10.2748 14.667 11.0001C14.667 11.9726 14.2806 12.9053 13.5929 13.593C12.9052 14.2807 11.9725 14.6671 11 14.6671Z" fill="#654E39"/>
<path d="M16.872 6.44811C17.601 6.44811 18.192 5.85712 18.192 5.12811C18.192 4.39909 17.601 3.80811 16.872 3.80811C16.143 3.80811 15.552 4.39909 15.552 5.12811C15.552 5.85712 16.143 6.44811 16.872 6.44811Z" fill="#654E39"/>
</svg>
