<svg width="48" height="18" viewBox="0 0 48 18" fill="none" xmlns="http://www.w3.org/2000/svg">
<path d="M17.537 4.57739C17.5364 4.5788 17.5358 4.58021 17.5353 4.58162C18.7428 6.20214 19.864 7.72168 21.0898 9.36016C22.0747 7.38877 22.9893 5.55452 23.9919 3.56598C24.9944 5.55452 25.909 7.37162 26.9115 9.36016C28.1251 7.73162 29.2508 6.22307 30.482 4.56025C31.291 6.58307 32.0298 8.45161 32.8212 10.4401C34.4042 9.03445 35.952 7.68019 37.6229 6.20593L37.6234 6.2116C37.7991 8.09501 37.9572 9.79056 38.1329 11.623C40.1732 10.2687 42.2662 9.20588 44.6582 8.31446C42.8642 10.663 41.1757 12.8744 39.4696 15.1029C29.1805 9.29159 18.8737 9.27445 8.5493 15.1029C6.84323 12.8915 5.15474 10.6801 3.32556 8.29732C5.69998 9.20588 7.82819 10.2001 9.86844 11.6573C10.0443 9.82301 10.2026 8.14304 10.3785 6.2745C12.0846 7.59448 13.5268 9.06874 15.1977 10.4401C15.9711 8.50436 16.7269 6.63706 17.5353 4.58162C17.53 4.5745 17.5247 4.56737 17.5194 4.56025L17.537 4.57739Z" fill="#654E39"/>
<path d="M37.7636 17.2114C38.0274 17.3829 38.256 17.5886 38.4847 17.7771V17.8114C38.4495 17.8629 38.3968 17.9314 38.3616 18C28.7759 14.9658 19.1903 14.9658 9.6046 18C9.56943 17.9314 9.55184 17.88 9.51666 17.8114C9.7629 17.6229 9.97396 17.4172 10.2202 17.2457C12.4715 15.6515 14.9691 14.6058 17.6777 14.0401C23.0069 12.943 28.2658 13.0801 33.4192 14.9486C34.967 15.5143 36.4269 16.2686 37.7636 17.2114Z" fill="#654E39"/>
<path d="M37.1832 4.08026C37.1832 3.27456 37.8163 2.65742 38.6254 2.64028V2.65743C39.4697 2.64028 40.1556 3.27456 40.1556 4.0974C40.1732 4.9031 39.4872 5.57166 38.6606 5.57166C37.8163 5.57166 37.1832 4.9031 37.1832 4.08026Z" fill="#654E39"/>
<path d="M29.4267 2.19458C29.4619 1.42316 30.1126 0.806031 30.9217 0.806031L30.9393 0.823175C31.8011 0.806033 32.4519 1.42316 32.4519 2.26315C32.4343 3.08599 31.7659 3.72027 30.9217 3.70312C30.0774 3.68598 29.3915 2.98313 29.4267 2.19458Z" fill="#654E39"/>
<path d="M15.6022 2.29743C15.5671 1.47459 16.2178 0.806031 17.0621 0.806031L17.0797 0.823175C17.9415 0.806033 18.6098 1.42316 18.6098 2.246C18.6098 3.0517 17.9415 3.70312 17.0972 3.70312C16.2882 3.68598 15.6374 3.06885 15.6022 2.29743Z" fill="#654E39"/>
<path d="M23.9919 0.000330719C24.8361 -0.0168118 25.5045 0.634606 25.5045 1.45745C25.5045 2.28029 24.8361 2.91457 23.9919 2.91457C23.1301 2.91457 22.4969 2.24601 22.5145 1.42316C22.5321 0.65175 23.2004 0.000330719 23.9919 0.000330719Z" fill="#654E39"/>
<path d="M0.00136167 6.68592C-0.033815 5.86308 0.616955 5.17738 1.44361 5.14309C2.23508 5.10881 3.00896 5.81165 3.00896 6.58307C3.02655 7.37162 2.30543 8.07447 1.49637 8.07447C0.704893 8.09161 0.0365384 7.45734 0.00136167 6.68592Z" fill="#654E39"/>
<path d="M9.32319 5.55452C8.5493 5.53737 7.86335 4.88596 7.84576 4.13169H7.82818C7.8106 3.34313 8.49654 2.64028 9.32319 2.64028C10.1498 2.62314 10.8358 3.27456 10.8358 4.0974C10.8358 4.9031 10.1498 5.55452 9.32319 5.55452Z" fill="#654E39"/>
<path d="M45.0452 6.65164C45.01 5.8288 45.6783 5.14309 46.505 5.14309C47.3492 5.14309 48 5.77737 48 6.61735C48 7.45734 47.3492 8.09161 46.505 8.07447C45.6959 8.05733 45.0627 7.4402 45.0452 6.65164Z" fill="#654E39"/>
</svg>
