<svg width="22" height="24" viewBox="0 0 22 24" fill="none" xmlns="http://www.w3.org/2000/svg">
<path d="M9.18898 8.937V13.059C8.66984 12.9221 8.1266 12.9034 7.5993 13.0044C7.07199 13.1054 6.57407 13.3234 6.14222 13.6424C5.71038 13.9613 5.35562 14.3732 5.10411 14.8475C4.85259 15.3218 4.71073 15.8466 4.68898 16.383C4.65924 16.8449 4.72874 17.3078 4.89281 17.7405C5.05687 18.1733 5.3117 18.5659 5.64015 18.892C5.9686 19.2181 6.36306 19.4701 6.79701 19.631C7.23096 19.7919 7.69433 19.8581 8.15598 19.825C8.6223 19.8608 9.09082 19.7949 9.52918 19.6319C9.96754 19.4689 10.3653 19.2126 10.6949 18.8809C11.0246 18.5491 11.2783 18.1498 11.4385 17.7104C11.5988 17.271 11.6617 16.8021 11.623 16.336V0H15.7C16.393 4.315 18.551 5.316 21.44 5.778V9.913C19.4379 9.74881 17.5066 9.09645 15.815 8.013V16.18C15.815 19.88 13.625 24 8.18798 24C7.16794 23.9955 6.15905 23.7875 5.22046 23.3881C4.28187 22.9886 3.43245 22.4059 2.72201 21.6739C2.01156 20.942 1.45438 20.0755 1.08313 19.1254C0.711873 18.1754 0.534015 17.1607 0.559978 16.141C0.592285 15.0794 0.849234 14.0366 1.31389 13.0815C1.77854 12.1265 2.44035 11.2807 3.25568 10.6C4.07102 9.9193 5.02136 9.41915 6.04407 9.1325C7.06679 8.84586 8.13864 8.77923 9.18898 8.937Z" fill="#654E39"/>
</svg>
